  0
SECTION
  2
HEADER
  9
$ACADVER
  1
AC1032
  9
$ACADMAINTVER
 90
4
  9
$DWGCODEPAGE
  3
ANSI_1252
  9
$LASTSAVEDBY
  1
ezdxf
  9
$REQUIREDVERSIONS
160
0
  9
$INSBASE
 10
0.0
 20
0.0
 30
0.0
  9
$EXTMIN
 10
1e+20
 20
1e+20
 30
1e+20
  9
$EXTMAX
 10
-1e+20
 20
-1e+20
 30
-1e+20
  9
$LIMMIN
 10
0.0
 20
0.0
  9
$LIMMAX
 10
420.0
 20
297.0
  9
$ORTHOMODE
 70
0
  9
$REGENMODE
 70
1
  9
$FILLMODE
 70
1
  9
$QTEXTMODE
 70
0
  9
$MIRRTEXT
 70
1
  9
$LTSCALE
 40
1.0
  9
$ATTMODE
 70
1
  9
$TEXTSIZE
 40
2.5
  9
$TRACEWID
 40
1.0
  9
$TEXTSTYLE
  7
Standard
  9
$CLAYER
  8
0
  9
$CELTYPE
  6
ByLayer
  9
$CECOLOR
 62
256
  9
$CELTSCALE
 40
1.0
  9
$DISPSILH
 70
0
  9
$DIMSCALE
 40
1.0
  9
$DIMASZ
 40
2.5
  9
$DIMEXO
 40
0.625
  9
$DIMDLI
 40
3.75
  9
$DIMRND
 40
0.0
  9
$DIMDLE
 40
0.0
  9
$DIMEXE
 40
1.25
  9
$DIMTP
 40
0.0
  9
$DIMTM
 40
0.0
  9
$DIMTXT
 40
2.5
  9
$DIMCEN
 40
2.5
  9
$DIMTSZ
 40
0.0
  9
$DIMTOL
 70
0
  9
$DIMLIM
 70
0
  9
$DIMTIH
 70
0
  9
$DIMTOH
 70
0
  9
$DIMSE1
 70
0
  9
$DIMSE2
 70
0
  9
$DIMTAD
 70
1
  9
$DIMZIN
 70
8
  9
$DIMBLK
  1

  9
$DIMASO
 70
1
  9
$DIMSHO
 70
1
  9
$DIMPOST
  1

  9
$DIMAPOST
  1

  9
$DIMALT
 70
0
  9
$DIMALTD
 70
3
  9
$DIMALTF
 40
0.03937007874
  9
$DIMLFAC
 40
1.0
  9
$DIMTOFL
 70
1
  9
$DIMTVP
 40
0.0
  9
$DIMTIX
 70
0
  9
$DIMSOXD
 70
0
  9
$DIMSAH
 70
0
  9
$DIMBLK1
  1

  9
$DIMBLK2
  1

  9
$DIMSTYLE
  2
ISO-25
  9
$DIMCLRD
 70
0
  9
$DIMCLRE
 70
0
  9
$DIMCLRT
 70
0
  9
$DIMTFAC
 40
1.0
  9
$DIMGAP
 40
0.625
  9
$DIMJUST
 70
0
  9
$DIMSD1
 70
0
  9
$DIMSD2
 70
0
  9
$DIMTOLJ
 70
0
  9
$DIMTZIN
 70
8
  9
$DIMALTZ
 70
0
  9
$DIMALTTZ
 70
0
  9
$DIMUPT
 70
0
  9
$DIMDEC
 70
2
  9
$DIMTDEC
 70
2
  9
$DIMALTU
 70
2
  9
$DIMALTTD
 70
3
  9
$DIMTXSTY
  7
Standard
  9
$DIMAUNIT
 70
0
  9
$DIMADEC
 70
0
  9
$DIMALTRND
 40
0.0
  9
$DIMAZIN
 70
0
  9
$DIMDSEP
 70
44
  9
$DIMATFIT
 70
3
  9
$DIMFRAC
 70
0
  9
$DIMLDRBLK
  1

  9
$DIMLUNIT
 70
2
  9
$DIMLWD
 70
-2
  9
$DIMLWE
 70
-2
  9
$DIMTMOVE
 70
0
  9
$DIMFXL
 40
1.0
  9
$DIMFXLON
 70
0
  9
$DIMJOGANG
 40
0.785398163397
  9
$DIMTFILL
 70
0
  9
$DIMTFILLCLR
 70
0
  9
$DIMARCSYM
 70
0
  9
$DIMLTYPE
  6

  9
$DIMLTEX1
  6

  9
$DIMLTEX2
  6

  9
$DIMTXTDIRECTION
 70
0
  9
$LUNITS
 70
2
  9
$LUPREC
 70
4
  9
$SKETCHINC
 40
1.0
  9
$FILLETRAD
 40
10.0
  9
$AUNITS
 70
0
  9
$AUPREC
 70
2
  9
$MENU
  1
.
  9
$ELEVATION
 40
0.0
  9
$PELEVATION
 40
0.0
  9
$THICKNESS
 40
0.0
  9
$LIMCHECK
 70
0
  9
$CHAMFERA
 40
0.0
  9
$CHAMFERB
 40
0.0
  9
$CHAMFERC
 40
0.0
  9
$CHAMFERD
 40
0.0
  9
$SKPOLY
 70
0
  9
$TDCREATE
 40
2461201.840625
  9
$TDUCREATE
 40
2458532.153996898
  9
$TDUPDATE
 40
2461201.840636574
  9
$TDUUPDATE
 40
2458532.1544311
  9
$TDINDWG
 40
0.0
  9
$TDUSRTIMER
 40
0.0
  9
$USRTIMER
 70
1
  9
$ANGBASE
 50
0.0
  9
$ANGDIR
 70
0
  9
$PDMODE
 70
0
  9
$PDSIZE
 40
0.0
  9
$PLINEWID
 40
0.0
  9
$SPLFRAME
 70
0
  9
$SPLINETYPE
 70
6
  9
$SPLINESEGS
 70
8
  9
$HANDSEED
  5
13C
  9
$SURFTAB1
 70
6
  9
$SURFTAB2
 70
6
  9
$SURFTYPE
 70
6
  9
$SURFU
 70
6
  9
$SURFV
 70
6
  9
$UCSBASE
  2

  9
$UCSNAME
  2

  9
$UCSORG
 10
0.0
 20
0.0
 30
0.0
  9
$UCSXDIR
 10
1.0
 20
0.0
 30
0.0
  9
$UCSYDIR
 10
0.0
 20
1.0
 30
0.0
  9
$UCSORTHOREF
  2

  9
$UCSORTHOVIEW
 70
0
  9
$UCSORGTOP
 10
0.0
 20
0.0
 30
0.0
  9
$UCSORGBOTTOM
 10
0.0
 20
0.0
 30
0.0
  9
$UCSORGLEFT
 10
0.0
 20
0.0
 30
0.0
  9
$UCSORGRIGHT
 10
0.0
 20
0.0
 30
0.0
  9
$UCSORGFRONT
 10
0.0
 20
0.0
 30
0.0
  9
$UCSORGBACK
 10
0.0
 20
0.0
 30
0.0
  9
$PUCSBASE
  2

  9
$PUCSNAME
  2

  9
$PUCSORG
 10
0.0
 20
0.0
 30
0.0
  9
$PUCSXDIR
 10
1.0
 20
0.0
 30
0.0
  9
$PUCSYDIR
 10
0.0
 20
1.0
 30
0.0
  9
$PUCSORTHOREF
  2

  9
$PUCSORTHOVIEW
 70
0
  9
$PUCSORGTOP
 10
0.0
 20
0.0
 30
0.0
  9
$PUCSORGBOTTOM
 10
0.0
 20
0.0
 30
0.0
  9
$PUCSORGLEFT
 10
0.0
 20
0.0
 30
0.0
  9
$PUCSORGRIGHT
 10
0.0
 20
0.0
 30
0.0
  9
$PUCSORGFRONT
 10
0.0
 20
0.0
 30
0.0
  9
$PUCSORGBACK
 10
0.0
 20
0.0
 30
0.0
  9
$USERI1
 70
0
  9
$USERI2
 70
0
  9
$USERI3
 70
0
  9
$USERI4
 70
0
  9
$USERI5
 70
0
  9
$USERR1
 40
0.0
  9
$USERR2
 40
0.0
  9
$USERR3
 40
0.0
  9
$USERR4
 40
0.0
  9
$USERR5
 40
0.0
  9
$WORLDVIEW
 70
1
  9
$SHADEDGE
 70
3
  9
$SHADEDIF
 70
70
  9
$TILEMODE
 70
1
  9
$MAXACTVP
 70
64
  9
$PINSBASE
 10
0.0
 20
0.0
 30
0.0
  9
$PLIMCHECK
 70
0
  9
$PEXTMIN
 10
1e+20
 20
1e+20
 30
1e+20
  9
$PEXTMAX
 10
-1e+20
 20
-1e+20
 30
-1e+20
  9
$PLIMMIN
 10
0.0
 20
0.0
  9
$PLIMMAX
 10
420.0
 20
297.0
  9
$UNITMODE
 70
0
  9
$VISRETAIN
 70
1
  9
$PLINEGEN
 70
0
  9
$PSLTSCALE
 70
1
  9
$TREEDEPTH
 70
3020
  9
$CMLSTYLE
  2
Standard
  9
$CMLJUST
 70
0
  9
$CMLSCALE
 40
20.0
  9
$PROXYGRAPHICS
 70
1
  9
$MEASUREMENT
 70
1
  9
$CELWEIGHT
370
-1
  9
$ENDCAPS
280
0
  9
$JOINSTYLE
280
0
  9
$LWDISPLAY
290
0
  9
$INSUNITS
 70
4
  9
$HYPERLINKBASE
  1

  9
$STYLESHEET
  1

  9
$XEDIT
290
1
  9
$CEPSNTYPE
380
0
  9
$PSTYLEMODE
290
1
  9
$FINGERPRINTGUID
  2
{B7F0B708-19C7-4020-B5EC-EF10F83C3ECC}
  9
$VERSIONGUID
  2
{A24A5244-9CAF-4D41-B27D-68C62F329687}
  9
$EXTNAMES
290
1
  9
$PSVPSCALE
 40
0.0
  9
$OLESTARTUP
290
0
  9
$SORTENTS
280
127
  9
$INDEXCTL
280
0
  9
$HIDETEXT
280
1
  9
$XCLIPFRAME
280
1
  9
$HALOGAP
280
0
  9
$OBSCOLOR
 70
257
  9
$OBSLTYPE
280
0
  9
$INTERSECTIONDISPLAY
280
0
  9
$INTERSECTIONCOLOR
 70
257
  9
$DIMASSOC
280
2
  9
$PROJECTNAME
  1

  9
$CAMERADISPLAY
290
0
  9
$LENSLENGTH
 40
50.0
  9
$CAMERAHEIGHT
 40
0.0
  9
$STEPSPERSEC
 40
24.0
  9
$STEPSIZE
 40
100.0
  9
$3DDWFPREC
 40
2.0
  9
$PSOLWIDTH
 40
0.005
  9
$PSOLHEIGHT
 40
0.08
  9
$LOFTANG1
 40
1.570796326795
  9
$LOFTANG2
 40
1.570796326795
  9
$LOFTMAG1
 40
0.0
  9
$LOFTMAG2
 40
0.0
  9
$LOFTPARAM
 70
7
  9
$LOFTNORMALS
280
1
  9
$LATITUDE
 40
37.795
  9
$LONGITUDE
 40
-122.394
  9
$NORTHDIRECTION
 40
0.0
  9
$TIMEZONE
 70
-8000
  9
$LIGHTGLYPHDISPLAY
280
1
  9
$TILEMODELIGHTSYNCH
280
1
  9
$CMATERIAL
347
20
  9
$SOLIDHIST
280
0
  9
$SHOWHIST
280
1
  9
$DWFFRAME
280
2
  9
$DGNFRAME
280
2
  9
$REALWORLDSCALE
290
1
  9
$INTERFERECOLOR
 62
256
  9
$CSHADOW
280
0
  9
$SHADOWPLANELOCATION
 40
0.0
  0
ENDSEC
  0
SECTION
  2
CLASSES
  0
CLASS
  1
ACDBDICTIONARYWDFLT
  2
AcDbDictionaryWithDefault
  3
ObjectDBX Classes
 90
0
 91
0
280
0
281
0
  0
CLASS
  1
SUN
  2
AcDbSun
  3
SCENEOE
 90
1153
 91
0
280
0
281
0
  0
CLASS
  1
VISUALSTYLE
  2
AcDbVisualStyle
  3
ObjectDBX Classes
 90
4095
 91
0
280
0
281
0
  0
CLASS
  1
MATERIAL
  2
AcDbMaterial
  3
ObjectDBX Classes
 90
1153
 91
0
280
0
281
0
  0
CLASS
  1
SCALE
  2
AcDbScale
  3
ObjectDBX Classes
 90
1153
 91
0
280
0
281
0
  0
CLASS
  1
TABLESTYLE
  2
AcDbTableStyle
  3
ObjectDBX Classes
 90
4095
 91
0
280
0
281
0
  0
CLASS
  1
MLEADERSTYLE
  2
AcDbMLeaderStyle
  3
ACDB_MLEADERSTYLE_CLASS
 90
4095
 91
0
280
0
281
0
  0
CLASS
  1
DICTIONARYVAR
  2
AcDbDictionaryVar
  3
ObjectDBX Classes
 90
0
 91
0
280
0
281
0
  0
CLASS
  1
CELLSTYLEMAP
  2
AcDbCellStyleMap
  3
ObjectDBX Classes
 90
1152
 91
0
280
0
281
0
  0
CLASS
  1
MENTALRAYRENDERSETTINGS
  2
AcDbMentalRayRenderSettings
  3
SCENEOE
 90
1024
 91
0
280
0
281
0
  0
CLASS
  1
ACDBDETAILVIEWSTYLE
  2
AcDbDetailViewStyle
  3
ObjectDBX Classes
 90
1025
 91
0
280
0
281
0
  0
CLASS
  1
ACDBSECTIONVIEWSTYLE
  2
AcDbSectionViewStyle
  3
ObjectDBX Classes
 90
1025
 91
0
280
0
281
0
  0
CLASS
  1
RASTERVARIABLES
  2
AcDbRasterVariables
  3
ISM
 90
0
 91
0
280
0
281
0
  0
CLASS
  1
LAYOUT
  2
AcDbLayout
  3
ObjectDBX Classes
 90
0
 91
0
280
0
281
0
  0
CLASS
  1
ACDBPLACEHOLDER
  2
AcDbPlaceHolder
  3
ObjectDBX Classes
 90
0
 91
0
280
0
281
0
  0
ENDSEC
  0
SECTION
  2
TABLES
  0
TABLE
  2
VPORT
  5
8
330
0
100
AcDbSymbolTable
 70
1
  0
VPORT
  5
23
330
8
100
AcDbSymbolTableRecord
100
AcDbViewportTableRecord
  2
*Active
 70
0
 10
0.0
 20
0.0
 11
1.0
 21
1.0
 12
0.0
 22
0.0
 13
0.0
 23
0.0
 14
0.5
 24
0.5
 15
0.5
 25
0.5
 16
0.0
 26
0.0
 36
1.0
 17
0.0
 27
0.0
 37
0.0
 40
1000.0
 41
1.34
 42
50.0
 43
0.0
 44
0.0
 50
0.0
 51
0.0
 71
0
 72
1000
 73
1
 74
3
 75
0
 76
0
 77
0
 78
0
281
0
 65
0
146
0.0
  0
ENDTAB
  0
TABLE
  2
LTYPE
  5
2
330
0
100
AcDbSymbolTable
 70
3
  0
LTYPE
  5
24
330
2
100
AcDbSymbolTableRecord
100
AcDbLinetypeTableRecord
  2
ByBlock
 70
0
  3

 72
65
 73
0
 40
0.0
  0
LTYPE
  5
25
330
2
100
AcDbSymbolTableRecord
100
AcDbLinetypeTableRecord
  2
ByLayer
 70
0
  3

 72
65
 73
0
 40
0.0
  0
LTYPE
  5
26
330
2
100
AcDbSymbolTableRecord
100
AcDbLinetypeTableRecord
  2
Continuous
 70
0
  3

 72
65
 73
0
 40
0.0
  0
ENDTAB
  0
TABLE
  2
LAYER
  5
1
330
0
100
AcDbSymbolTable
 70
4
  0
LAYER
  5
27
330
1
100
AcDbSymbolTableRecord
100
AcDbLayerTableRecord
  2
0
 70
0
 62
7
  6
Continuous
370
-3
390
13
347
21
  0
LAYER
  5
28
330
1
100
AcDbSymbolTableRecord
100
AcDbLayerTableRecord
  2
Defpoints
 70
0
 62
7
  6
Continuous
290
0
370
-3
390
13
347
21
  0
LAYER
  5
2F
330
1
100
AcDbSymbolTableRecord
100
AcDbLayerTableRecord
  2
ORIGINAL
 70
0
 62
1
  6
Continuous
370
-3
390
13
347
21
  0
LAYER
  5
36
330
1
100
AcDbSymbolTableRecord
100
AcDbLayerTableRecord
  2
SEWING_HOLES
 70
0
 62
3
  6
Continuous
370
-3
390
13
347
21
  0
ENDTAB
  0
TABLE
  2
STYLE
  5
5
330
0
100
AcDbSymbolTable
 70
1
  0
STYLE
  5
29
330
5
100
AcDbSymbolTableRecord
100
AcDbTextStyleTableRecord
  2
Standard
 70
0
 40
0.0
 41
1.0
 50
0.0
 71
0
 42
2.5
  3
txt
  4

  0
ENDTAB
  0
TABLE
  2
VIEW
  5
7
330
0
100
AcDbSymbolTable
 70
0
  0
ENDTAB
  0
TABLE
  2
UCS
  5
6
330
0
100
AcDbSymbolTable
 70
0
  0
ENDTAB
  0
TABLE
  2
APPID
  5
3
330
0
100
AcDbSymbolTable
 70
3
  0
APPID
  5
2A
330
3
100
AcDbSymbolTableRecord
100
AcDbRegAppTableRecord
  2
ACAD
 70
0
  0
APPID
  5
33
330
3
100
AcDbSymbolTableRecord
100
AcDbRegAppTableRecord
  2
HATCHBACKGROUNDCOLOR
 70
0
  0
APPID
  5
34
330
3
100
AcDbSymbolTableRecord
100
AcDbRegAppTableRecord
  2
EZDXF
 70
0
  0
ENDTAB
  0
TABLE
  2
DIMSTYLE
  5
4
330
0
100
AcDbSymbolTable
 70
1
100
AcDbDimStyleTable
  0
DIMSTYLE
105
2B
330
4
100
AcDbSymbolTableRecord
100
AcDbDimStyleTableRecord
  2
Standard
 70
0
 40
1.0
 41
2.5
 42
0.625
 43
3.75
 44
1.25
 45
0.0
 46
0.0
 47
0.0
 48
0.0
 49
2.5
140
2.5
141
2.5
142
0.0
143
0.03937007874
144
1.0
145
0.0
146
1.0
147
0.625
148
0.0
 69
0
 70
0
 71
0
 72
0
 73
0
 74
0
 75
0
 76
0
 77
1
 78
8
 79
3
170
0
171
3
172
1
173
0
174
0
175
0
176
0
177
0
178
0
179
2
271
2
272
2
273
2
274
3
275
0
276
0
277
2
278
44
279
0
280
0
281
0
282
0
283
0
284
8
285
0
286
0
288
0
289
3
290
0
371
-2
372
-2
  0
ENDTAB
  0
TABLE
  2
BLOCK_RECORD
  5
9
330
0
100
AcDbSymbolTable
 70
2
  0
BLOCK_RECORD
  5
17
330
9
100
AcDbSymbolTableRecord
100
AcDbBlockTableRecord
  2
*Model_Space
340
1A
 70
0
280
1
281
0
  0
BLOCK_RECORD
  5
1B
330
9
100
AcDbSymbolTableRecord
100
AcDbBlockTableRecord
  2
*Paper_Space
340
1E
 70
0
280
1
281
0
  0
ENDTAB
  0
ENDSEC
  0
SECTION
  2
BLOCKS
  0
BLOCK
  5
18
330
17
100
AcDbEntity
  8
0
100
AcDbBlockBegin
  2
*Model_Space
 70
0
 10
0.0
 20
0.0
 30
0.0
  3
*Model_Space
  1

  0
ENDBLK
  5
19
330
17
100
AcDbEntity
  8
0
100
AcDbBlockEnd
  0
BLOCK
  5
1C
330
1B
100
AcDbEntity
  8
0
100
AcDbBlockBegin
  2
*Paper_Space
 70
0
 10
0.0
 20
0.0
 30
0.0
  3
*Paper_Space
  1

  0
ENDBLK
  5
1D
330
1B
100
AcDbEntity
  8
0
100
AcDbBlockEnd
  0
ENDSEC
  0
SECTION
  2
ENTITIES
  0
LWPOLYLINE
  5
30
330
17
100
AcDbEntity
  8
ORIGINAL
100
AcDbPolyline
 90
4
 70
1
 10
10.0
 20
10.0
 10
110.0
 20
10.0
 10
110.0
 20
110.0
 10
10.0
 20
110.0
  0
CIRCLE
  5
31
330
17
100
AcDbEntity
  8
ORIGINAL
100
AcDbCircle
 10
60.0
 20
60.0
 30
0.0
 40
30.0
  0
LWPOLYLINE
  5
32
330
17
100
AcDbEntity
  8
ORIGINAL
100
AcDbPolyline
 90
3
 70
0
 10
15.0
 20
15.0
 10
60.0
 20
30.0
 10
105.0
 20
15.0
  0
CIRCLE
  5
37
330
17
100
AcDbEntity
  8
SEWING_HOLES
100
AcDbCircle
 10
13.893202818941067
 20
18.320391543176797
 30
0.0
 40
0.75
  0
CIRCLE
  5
38
330
17
100
AcDbEntity
  8
SEWING_HOLES
100
AcDbCircle
 10
19.67823969986836
 20
20.248737170152566
 30
0.0
 40
0.75
  0
CIRCLE
  5
39
330
17
100
AcDbEntity
  8
SEWING_HOLES
100
AcDbCircle
 10
25.46327658085161
 20
22.177082797146976
 30
0.0
 40
0.75
  0
CIRCLE
  5
3A
330
17
100
AcDbEntity
  8
SEWING_HOLES
100
AcDbCircle
 10
31.248313461704296
 20
24.105428424097873
 30
0.0
 40
0.75
  0
CIRCLE
  5
3B
330
17
100
AcDbEntity
  8
SEWING_HOLES
100
AcDbCircle
 10
37.03335034257564
 20
26.033774051054984
 30
0.0
 40
0.75
  0
CIRCLE
  5
3C
330
17
100
AcDbEntity
  8
SEWING_HOLES
100
AcDbCircle
 10
42.81838722355888
 20
27.962119678049397
 30
0.0
 40
0.75
  0
CIRCLE
  5
3D
330
17
100
AcDbEntity
  8
SEWING_HOLES
100
AcDbCircle
 10
48.60342410456078
 20
29.890465305050032
 30
0.0
 40
0.75
  0
CIRCLE
  5
3E
330
17
100
AcDbEntity
  8
SEWING_HOLES
100
AcDbCircle
 10
54.38846098539481
 20
31.81881093199471
 30
0.0
 40
0.75
  0
CIRCLE
  5
3F
330
17
100
AcDbEntity
  8
SEWING_HOLES
100
AcDbCircle
 10
60.19719229946155
 20
33.47563565889976
 30
0.0
 40
0.75
  0
CIRCLE
  5
40
330
17
100
AcDbEntity
  8
SEWING_HOLES
100
AcDbCircle
 10
65.99088569530309
 20
31.692362038428747
 30
0.0
 40
0.75
  0
CIRCLE
  5
41
330
17
100
AcDbEntity
  8
SEWING_HOLES
100
AcDbCircle
 10
71.77592257615576
 20
29.76401641147785
 30
0.0
 40
0.75
  0
CIRCLE
  5
42
330
17
100
AcDbEntity
  8
SEWING_HOLES
100
AcDbCircle
 10
77.56095945713902
 20
27.835670784483433
 30
0.0
 40
0.75
  0
CIRCLE
  5
43
330
17
100
AcDbEntity
  8
SEWING_HOLES
100
AcDbCircle
 10
83.34599633806631
 20
25.90732515750767
 30
0.0
 40
0.75
  0
CIRCLE
  5
44
330
17
100
AcDbEntity
  8
SEWING_HOLES
100
AcDbCircle
 10
89.1310332189936
 20
23.97897953053191
 30
0.0
 40
0.75
  0
CIRCLE
  5
45
330
17
100
AcDbEntity
  8
SEWING_HOLES
100
AcDbCircle
 10
94.9160700999955
 20
22.050633903531278
 30
0.0
 40
0.75
  0
CIRCLE
  5
46
330
17
100
AcDbEntity
  8
SEWING_HOLES
100
AcDbCircle
 10
100.70110698086683
 20
20.122288276574167
 30
0.0
 40
0.75
  0
CIRCLE
  5
47
330
17
100
AcDbEntity
  8
SEWING_HOLES
100
AcDbCircle
 10
15.884456296443767
 20
22.146420362512746
 30
0.0
 40
0.75
  0
CIRCLE
  5
48
330
17
100
AcDbEntity
  8
SEWING_HOLES
100
AcDbCircle
 10
21.66949317737106
 20
24.074765989488508
 30
0.0
 40
0.75
  0
CIRCLE
  5
49
330
17
100
AcDbEntity
  8
SEWING_HOLES
100
AcDbCircle
 10
27.45453005840227
 20
26.003111616498913
 30
0.0
 40
0.75
  0
CIRCLE
  5
4A
330
17
100
AcDbEntity
  8
SEWING_HOLES
100
AcDbCircle
 10
33.239566939329556
 20
27.931457243474675
 30
0.0
 40
0.75
  0
CIRCLE
  5
4B
330
17
100
AcDbEntity
  8
SEWING_HOLES
100
AcDbCircle
 10
39.024603820118294
 20
29.859802870404256
 30
0.0
 40
0.75
  0
CIRCLE
  5
4C
330
17
100
AcDbEntity
  8
SEWING_HOLES
100
AcDbCircle
 10
44.80964070108023
 20
31.788148497391564
 30
0.0
 40
0.75
  0
CIRCLE
  5
4D
330
17
100
AcDbEntity
  8
SEWING_HOLES
100
AcDbCircle
 10
50.594677582146076
 20
33.716494124413515
 30
0.0
 40
0.75
  0
CIRCLE
  5
4E
330
17
100
AcDbEntity
  8
SEWING_HOLES
100
AcDbCircle
 10
56.379714462969446
 20
35.64483975135464
 30
0.0
 40
0.75
  0
CIRCLE
  5
4F
330
17
100
AcDbEntity
  8
SEWING_HOLES
100
AcDbCircle
 10
62.3874088246325
 20
36.05579865548732
 30
0.0
 40
0.75
  0
CIRCLE
  5
50
330
17
100
AcDbEntity
  8
SEWING_HOLES
100
AcDbCircle
 10
68.17244570569834
 20
34.127453028465375
 30
0.0
 40
0.75
  0
CIRCLE
  5
51
330
17
100
AcDbEntity
  8
SEWING_HOLES
100
AcDbCircle
 10
73.95748258648709
 20
32.19910740153579
 30
0.0
 40
0.75
  0
CIRCLE
  5
52
330
17
100
AcDbEntity
  8
SEWING_HOLES
100
AcDbCircle
 10
79.74251946765686
 20
30.270761774479205
 30
0.0
 40
0.75
  0
CIRCLE
  5
53
330
17
100
AcDbEntity
  8
SEWING_HOLES
100
AcDbCircle
 10
85.52755634848023
 20
28.342416147538078
 30
0.0
 40
0.75
  0
CIRCLE
  5
54
330
17
100
AcDbEntity
  8
SEWING_HOLES
100
AcDbCircle
 10
91.31259322951145
 20
26.414070520527673
 30
0.0
 40
0.75
  0
CIRCLE
  5
55
330
17
100
AcDbEntity
  8
SEWING_HOLES
100
AcDbCircle
 10
97.09763011030019
 20
24.4857248935981
 30
0.0
 40
0.75
  0
CIRCLE
  5
56
330
17
100
AcDbEntity
  8
SEWING_HOLES
100
AcDbCircle
 10
102.88266699122748
 20
22.55737926662233
 30
0.0
 40
0.75
  0
CIRCLE
  5
57
330
17
100
AcDbEntity
  8
SEWING_HOLES
100
AcDbCircle
 10
12.474873733845179
 20
12.474873734460655
 30
0.0
 40
0.75
  0
CIRCLE
  5
58
330
17
100
AcDbEntity
  8
SEWING_HOLES
100
AcDbCircle
 10
16.4
 20
13.5
 30
0.0
 40
0.75
  0
CIRCLE
  5
59
330
17
100
AcDbEntity
  8
SEWING_HOLES
100
AcDbCircle
 10
20.4
 20
13.5
 30
0.0
 40
0.75
  0
CIRCLE
  5
5A
330
17
100
AcDbEntity
  8
SEWING_HOLES
100
AcDbCircle
 10
24.4
 20
13.5
 30
0.0
 40
0.75
  0
CIRCLE
  5
5B
330
17
100
AcDbEntity
  8
SEWING_HOLES
100
AcDbCircle
 10
28.4
 20
13.5
 30
0.0
 40
0.75
  0
CIRCLE
  5
5C
330
17
100
AcDbEntity
  8
SEWING_HOLES
100
AcDbCircle
 10
32.400000000000006
 20
13.5
 30
0.0
 40
0.75
  0
CIRCLE
  5
5D
330
17
100
AcDbEntity
  8
SEWING_HOLES
100
AcDbCircle
 10
36.400000000000006
 20
13.5
 30
0.0
 40
0.75
  0
CIRCLE
  5
5E
330
17
100
AcDbEntity
  8
SEWING_HOLES
100
AcDbCircle
 10
40.5
 20
13.5
 30
0.0
 40
0.75
  0
CIRCLE
  5
5F
330
17
100
AcDbEntity
  8
SEWING_HOLES
100
AcDbCircle
 10
44.5
 20
13.5
 30
0.0
 40
0.75
  0
CIRCLE
  5
60
330
17
100
AcDbEntity
  8
SEWING_HOLES
100
AcDbCircle
 10
48.5
 20
13.5
 30
0.0
 40
0.75
  0
CIRCLE
  5
61
330
17
100
AcDbEntity
  8
SEWING_HOLES
100
AcDbCircle
 10
52.5
 20
13.5
 30
0.0
 40
0.75
  0
CIRCLE
  5
62
330
17
100
AcDbEntity
  8
SEWING_HOLES
100
AcDbCircle
 10
56.5
 20
13.5
 30
0.0
 40
0.75
  0
CIRCLE
  5
63
330
17
100
AcDbEntity
  8
SEWING_HOLES
100
AcDbCircle
 10
60.5
 20
13.5
 30
0.0
 40
0.75
  0
CIRCLE
  5
64
330
17
100
AcDbEntity
  8
SEWING_HOLES
100
AcDbCircle
 10
64.5
 20
13.5
 30
0.0
 40
0.75
  0
CIRCLE
  5
65
330
17
100
AcDbEntity
  8
SEWING_HOLES
100
AcDbCircle
 10
68.5
 20
13.5
 30
0.0
 40
0.75
  0
CIRCLE
  5
66
330
17
100
AcDbEntity
  8
SEWING_HOLES
100
AcDbCircle
 10
72.5
 20
13.5
 30
0.0
 40
0.75
  0
CIRCLE
  5
67
330
17
100
AcDbEntity
  8
SEWING_HOLES
100
AcDbCircle
 10
76.5
 20
13.5
 30
0.0
 40
0.75
  0
CIRCLE
  5
68
330
17
100
AcDbEntity
  8
SEWING_HOLES
100
AcDbCircle
 10
80.5
 20
13.5
 30
0.0
 40
0.75
  0
CIRCLE
  5
69
330
17
100
AcDbEntity
  8
SEWING_HOLES
100
AcDbCircle
 10
84.5
 20
13.5
 30
0.0
 40
0.75
  0
CIRCLE
  5
6A
330
17
100
AcDbEntity
  8
SEWING_HOLES
100
AcDbCircle
 10
88.5
 20
13.5
 30
0.0
 40
0.75
  0
CIRCLE
  5
6B
330
17
100
AcDbEntity
  8
SEWING_HOLES
100
AcDbCircle
 10
92.5
 20
13.5
 30
0.0
 40
0.75
  0
CIRCLE
  5
6C
330
17
100
AcDbEntity
  8
SEWING_HOLES
100
AcDbCircle
 10
96.5
 20
13.5
 30
0.0
 40
0.75
  0
CIRCLE
  5
6D
330
17
100
AcDbEntity
  8
SEWING_HOLES
100
AcDbCircle
 10
100.5
 20
13.5
 30
0.0
 40
0.75
  0
CIRCLE
  5
6E
330
17
100
AcDbEntity
  8
SEWING_HOLES
100
AcDbCircle
 10
104.5
 20
13.5
 30
0.0
 40
0.75
  0
CIRCLE
  5
6F
330
17
100
AcDbEntity
  8
SEWING_HOLES
100
AcDbCircle
 10
108.5
 20
13.5
 30
0.0
 40
0.75
  0
CIRCLE
  5
70
330
17
100
AcDbEntity
  8
SEWING_HOLES
100
AcDbCircle
 10
106.5
 20
17.0
 30
0.0
 40
0.75
  0
CIRCLE
  5
71
330
17
100
AcDbEntity
  8
SEWING_HOLES
100
AcDbCircle
 10
106.5
 20
21.000000000000014
 30
0.0
 40
0.75
  0
CIRCLE
  5
72
330
17
100
AcDbEntity
  8
SEWING_HOLES
100
AcDbCircle
 10
106.5
 20
25.10000000000001
 30
0.0
 40
0.75
  0
CIRCLE
  5
73
330
17
100
AcDbEntity
  8
SEWING_HOLES
100
AcDbCircle
 10
106.5
 20
29.10000000000001
 30
0.0
 40
0.75
  0
CIRCLE
  5
74
330
17
100
AcDbEntity
  8
SEWING_HOLES
100
AcDbCircle
 10
106.5
 20
33.10000000000001
 30
0.0
 40
0.75
  0
CIRCLE
  5
75
330
17
100
AcDbEntity
  8
SEWING_HOLES
100
AcDbCircle
 10
106.5
 20
37.2
 30
0.0
 40
0.75
  0
CIRCLE
  5
76
330
17
100
AcDbEntity
  8
SEWING_HOLES
100
AcDbCircle
 10
106.5
 20
41.20000000000002
 30
0.0
 40
0.75
  0
CIRCLE
  5
77
330
17
100
AcDbEntity
  8
SEWING_HOLES
100
AcDbCircle
 10
106.5
 20
45.20000000000002
 30
0.0
 40
0.75
  0
CIRCLE
  5
78
330
17
100
AcDbEntity
  8
SEWING_HOLES
100
AcDbCircle
 10
106.5
 20
49.30000000000001
 30
0.0
 40
0.75
  0
CIRCLE
  5
79
330
17
100
AcDbEntity
  8
SEWING_HOLES
100
AcDbCircle
 10
106.5
 20
53.30000000000001
 30
0.0
 40
0.75
  0
CIRCLE
  5
7A
330
17
100
AcDbEntity
  8
SEWING_HOLES
100
AcDbCircle
 10
106.5
 20
57.30000000000001
 30
0.0
 40
0.75
  0
CIRCLE
  5
7B
330
17
100
AcDbEntity
  8
SEWING_HOLES
100
AcDbCircle
 10
106.5
 20
61.4
 30
0.0
 40
0.75
  0
CIRCLE
  5
7C
330
17
100
AcDbEntity
  8
SEWING_HOLES
100
AcDbCircle
 10
106.5
 20
65.4
 30
0.0
 40
0.75
  0
CIRCLE
  5
7D
330
17
100
AcDbEntity
  8
SEWING_HOLES
100
AcDbCircle
 10
106.5
 20
69.4
 30
0.0
 40
0.75
  0
CIRCLE
  5
7E
330
17
100
AcDbEntity
  8
SEWING_HOLES
100
AcDbCircle
 10
106.5
 20
73.5
 30
0.0
 40
0.75
  0
CIRCLE
  5
7F
330
17
100
AcDbEntity
  8
SEWING_HOLES
100
AcDbCircle
 10
106.5
 20
77.5
 30
0.0
 40
0.75
  0
CIRCLE
  5
80
330
17
100
AcDbEntity
  8
SEWING_HOLES
100
AcDbCircle
 10
106.5
 20
81.5
 30
0.0
 40
0.75
  0
CIRCLE
  5
81
330
17
100
AcDbEntity
  8
SEWING_HOLES
100
AcDbCircle
 10
106.5
 20
85.5
 30
0.0
 40
0.75
  0
CIRCLE
  5
82
330
17
100
AcDbEntity
  8
SEWING_HOLES
100
AcDbCircle
 10
106.5
 20
89.5
 30
0.0
 40
0.75
  0
CIRCLE
  5
83
330
17
100
AcDbEntity
  8
SEWING_HOLES
100
AcDbCircle
 10
106.5
 20
93.5
 30
0.0
 40
0.75
  0
CIRCLE
  5
84
330
17
100
AcDbEntity
  8
SEWING_HOLES
100
AcDbCircle
 10
106.5
 20
97.5
 30
0.0
 40
0.75
  0
CIRCLE
  5
85
330
17
100
AcDbEntity
  8
SEWING_HOLES
100
AcDbCircle
 10
106.5
 20
101.5
 30
0.0
 40
0.75
  0
CIRCLE
  5
86
330
17
100
AcDbEntity
  8
SEWING_HOLES
100
AcDbCircle
 10
106.5
 20
105.5
 30
0.0
 40
0.75
  0
CIRCLE
  5
87
330
17
100
AcDbEntity
  8
SEWING_HOLES
100
AcDbCircle
 10
102.60000000000002
 20
106.5
 30
0.0
 40
0.75
  0
CIRCLE
  5
88
330
17
100
AcDbEntity
  8
SEWING_HOLES
100
AcDbCircle
 10
98.60000000000002
 20
106.5
 30
0.0
 40
0.75
  0
CIRCLE
  5
89
330
17
100
AcDbEntity
  8
SEWING_HOLES
100
AcDbCircle
 10
94.60000000000002
 20
106.5
 30
0.0
 40
0.75
  0
CIRCLE
  5
8A
330
17
100
AcDbEntity
  8
SEWING_HOLES
100
AcDbCircle
 10
90.6
 20
106.5
 30
0.0
 40
0.75
  0
CIRCLE
  5
8B
330
17
100
AcDbEntity
  8
SEWING_HOLES
100
AcDbCircle
 10
86.6
 20
106.5
 30
0.0
 40
0.75
  0
CIRCLE
  5
8C
330
17
100
AcDbEntity
  8
SEWING_HOLES
100
AcDbCircle
 10
82.6
 20
106.5
 30
0.0
 40
0.75
  0
CIRCLE
  5
8D
330
17
100
AcDbEntity
  8
SEWING_HOLES
100
AcDbCircle
 10
78.6
 20
106.5
 30
0.0
 40
0.75
  0
CIRCLE
  5
8E
330
17
100
AcDbEntity
  8
SEWING_HOLES
100
AcDbCircle
 10
74.6
 20
106.5
 30
0.0
 40
0.75
  0
CIRCLE
  5
8F
330
17
100
AcDbEntity
  8
SEWING_HOLES
100
AcDbCircle
 10
70.6
 20
106.5
 30
0.0
 40
0.75
  0
CIRCLE
  5
90
330
17
100
AcDbEntity
  8
SEWING_HOLES
100
AcDbCircle
 10
66.6
 20
106.5
 30
0.0
 40
0.75
  0
CIRCLE
  5
91
330
17
100
AcDbEntity
  8
SEWING_HOLES
100
AcDbCircle
 10
62.599999999999966
 20
106.5
 30
0.0
 40
0.75
  0
CIRCLE
  5
92
330
17
100
AcDbEntity
  8
SEWING_HOLES
100
AcDbCircle
 10
58.5
 20
106.5
 30
0.0
 40
0.75
  0
CIRCLE
  5
93
330
17
100
AcDbEntity
  8
SEWING_HOLES
100
AcDbCircle
 10
54.49999999999997
 20
106.5
 30
0.0
 40
0.75
  0
CIRCLE
  5
94
330
17
100
AcDbEntity
  8
SEWING_HOLES
100
AcDbCircle
 10
50.39999999999998
 20
106.5
 30
0.0
 40
0.75
  0
CIRCLE
  5
95
330
17
100
AcDbEntity
  8
SEWING_HOLES
100
AcDbCircle
 10
46.39999999999998
 20
106.5
 30
0.0
 40
0.75
  0
CIRCLE
  5
96
330
17
100
AcDbEntity
  8
SEWING_HOLES
100
AcDbCircle
 10
42.39999999999998
 20
106.5
 30
0.0
 40
0.75
  0
CIRCLE
  5
97
330
17
100
AcDbEntity
  8
SEWING_HOLES
100
AcDbCircle
 10
38.39999999999998
 20
106.5
 30
0.0
 40
0.75
  0
CIRCLE
  5
98
330
17
100
AcDbEntity
  8
SEWING_HOLES
100
AcDbCircle
 10
34.30000000000001
 20
106.5
 30
0.0
 40
0.75
  0
CIRCLE
  5
99
330
17
100
AcDbEntity
  8
SEWING_HOLES
100
AcDbCircle
 10
30.30000000000001
 20
106.5
 30
0.0
 40
0.75
  0
CIRCLE
  5
9A
330
17
100
AcDbEntity
  8
SEWING_HOLES
100
AcDbCircle
 10
26.299999999999955
 20
106.5
 30
0.0
 40
0.75
  0
CIRCLE
  5
9B
330
17
100
AcDbEntity
  8
SEWING_HOLES
100
AcDbCircle
 10
22.19999999999999
 20
106.5
 30
0.0
 40
0.75
  0
CIRCLE
  5
9C
330
17
100
AcDbEntity
  8
SEWING_HOLES
100
AcDbCircle
 10
18.19999999999999
 20
106.5
 30
0.0
 40
0.75
  0
CIRCLE
  5
9D
330
17
100
AcDbEntity
  8
SEWING_HOLES
100
AcDbCircle
 10
14.199999999999989
 20
106.5
 30
0.0
 40
0.75
  0
CIRCLE
  5
9E
330
17
100
AcDbEntity
  8
SEWING_HOLES
100
AcDbCircle
 10
13.5
 20
102.5
 30
0.0
 40
0.75
  0
CIRCLE
  5
9F
330
17
100
AcDbEntity
  8
SEWING_HOLES
100
AcDbCircle
 10
13.5
 20
98.5
 30
0.0
 40
0.75
  0
CIRCLE
  5
A0
330
17
100
AcDbEntity
  8
SEWING_HOLES
100
AcDbCircle
 10
13.5
 20
94.5
 30
0.0
 40
0.75
  0
CIRCLE
  5
A1
330
17
100
AcDbEntity
  8
SEWING_HOLES
100
AcDbCircle
 10
13.5
 20
90.5
 30
0.0
 40
0.75
  0
CIRCLE
  5
A2
330
17
100
AcDbEntity
  8
SEWING_HOLES
100
AcDbCircle
 10
13.5
 20
86.5
 30
0.0
 40
0.75
  0
CIRCLE
  5
A3
330
17
100
AcDbEntity
  8
SEWING_HOLES
100
AcDbCircle
 10
13.5
 20
82.5
 30
0.0
 40
0.75
  0
CIRCLE
  5
A4
330
17
100
AcDbEntity
  8
SEWING_HOLES
100
AcDbCircle
 10
13.5
 20
78.5
 30
0.0
 40
0.75
  0
CIRCLE
  5
A5
330
17
100
AcDbEntity
  8
SEWING_HOLES
100
AcDbCircle
 10
13.5
 20
74.5
 30
0.0
 40
0.75
  0
CIRCLE
  5
A6
330
17
100
AcDbEntity
  8
SEWING_HOLES
100
AcDbCircle
 10
13.5
 20
70.5
 30
0.0
 40
0.75
  0
CIRCLE
  5
A7
330
17
100
AcDbEntity
  8
SEWING_HOLES
100
AcDbCircle
 10
13.5
 20
66.5
 30
0.0
 40
0.75
  0
CIRCLE
  5
A8
330
17
100
AcDbEntity
  8
SEWING_HOLES
100
AcDbCircle
 10
13.5
 20
62.5
 30
0.0
 40
0.75
  0
CIRCLE
  5
A9
330
17
100
AcDbEntity
  8
SEWING_HOLES
100
AcDbCircle
 10
13.5
 20
58.5
 30
0.0
 40
0.75
  0
CIRCLE
  5
AA
330
17
100
AcDbEntity
  8
SEWING_HOLES
100
AcDbCircle
 10
13.5
 20
54.49999999999999
 30
0.0
 40
0.75
  0
CIRCLE
  5
AB
330
17
100
AcDbEntity
  8
SEWING_HOLES
100
AcDbCircle
 10
13.5
 20
50.39999999999998
 30
0.0
 40
0.75
  0
CIRCLE
  5
AC
330
17
100
AcDbEntity
  8
SEWING_HOLES
100
AcDbCircle
 10
13.5
 20
46.39999999999998
 30
0.0
 40
0.75
  0
CIRCLE
  5
AD
330
17
100
AcDbEntity
  8
SEWING_HOLES
100
AcDbCircle
 10
13.5
 20
42.39999999999998
 30
0.0
 40
0.75
  0
CIRCLE
  5
AE
330
17
100
AcDbEntity
  8
SEWING_HOLES
100
AcDbCircle
 10
13.5
 20
38.39999999999998
 30
0.0
 40
0.75
  0
CIRCLE
  5
AF
330
17
100
AcDbEntity
  8
SEWING_HOLES
100
AcDbCircle
 10
13.5
 20
34.30000000000001
 30
0.0
 40
0.75
  0
CIRCLE
  5
B0
330
17
100
AcDbEntity
  8
SEWING_HOLES
100
AcDbCircle
 10
13.5
 20
30.30000000000001
 30
0.0
 40
0.75
  0
CIRCLE
  5
B1
330
17
100
AcDbEntity
  8
SEWING_HOLES
100
AcDbCircle
 10
13.5
 20
26.299999999999955
 30
0.0
 40
0.75
  0
CIRCLE
  5
B2
330
17
100
AcDbEntity
  8
SEWING_HOLES
100
AcDbCircle
 10
11.171657745606925
 20
16.393529395190054
 30
0.0
 40
0.75
  0
CIRCLE
  5
B3
330
17
100
AcDbEntity
  8
SEWING_HOLES
100
AcDbCircle
 10
22.7
 20
16.5
 30
0.0
 40
0.75
  0
CIRCLE
  5
B4
330
17
100
AcDbEntity
  8
SEWING_HOLES
100
AcDbCircle
 10
26.900000000000002
 20
16.5
 30
0.0
 40
0.75
  0
CIRCLE
  5
B5
330
17
100
AcDbEntity
  8
SEWING_HOLES
100
AcDbCircle
 10
31.2
 20
16.5
 30
0.0
 40
0.75
  0
CIRCLE
  5
B6
330
17
100
AcDbEntity
  8
SEWING_HOLES
100
AcDbCircle
 10
35.5
 20
16.5
 30
0.0
 40
0.75
  0
CIRCLE
  5
B7
330
17
100
AcDbEntity
  8
SEWING_HOLES
100
AcDbCircle
 10
39.7
 20
16.5
 30
0.0
 40
0.75
  0
CIRCLE
  5
B8
330
17
100
AcDbEntity
  8
SEWING_HOLES
100
AcDbCircle
 10
43.900000000000006
 20
16.5
 30
0.0
 40
0.75
  0
CIRCLE
  5
B9
330
17
100
AcDbEntity
  8
SEWING_HOLES
100
AcDbCircle
 10
48.2
 20
16.5
 30
0.0
 40
0.75
  0
CIRCLE
  5
BA
330
17
100
AcDbEntity
  8
SEWING_HOLES
100
AcDbCircle
 10
52.5
 20
16.5
 30
0.0
 40
0.75
  0
CIRCLE
  5
BB
330
17
100
AcDbEntity
  8
SEWING_HOLES
100
AcDbCircle
 10
56.7
 20
16.5
 30
0.0
 40
0.75
  0
CIRCLE
  5
BC
330
17
100
AcDbEntity
  8
SEWING_HOLES
100
AcDbCircle
 10
61.0
 20
16.5
 30
0.0
 40
0.75
  0
CIRCLE
  5
BD
330
17
100
AcDbEntity
  8
SEWING_HOLES
100
AcDbCircle
 10
65.2
 20
16.5
 30
0.0
 40
0.75
  0
CIRCLE
  5
BE
330
17
100
AcDbEntity
  8
SEWING_HOLES
100
AcDbCircle
 10
69.4
 20
16.5
 30
0.0
 40
0.75
  0
CIRCLE
  5
BF
330
17
100
AcDbEntity
  8
SEWING_HOLES
100
AcDbCircle
 10
73.7
 20
16.5
 30
0.0
 40
0.75
  0
CIRCLE
  5
C0
330
17
100
AcDbEntity
  8
SEWING_HOLES
100
AcDbCircle
 10
77.9
 20
16.5
 30
0.0
 40
0.75
  0
CIRCLE
  5
C1
330
17
100
AcDbEntity
  8
SEWING_HOLES
100
AcDbCircle
 10
82.2
 20
16.5
 30
0.0
 40
0.75
  0
CIRCLE
  5
C2
330
17
100
AcDbEntity
  8
SEWING_HOLES
100
AcDbCircle
 10
86.4
 20
16.5
 30
0.0
 40
0.75
  0
CIRCLE
  5
C3
330
17
100
AcDbEntity
  8
SEWING_HOLES
100
AcDbCircle
 10
90.60000000000001
 20
16.5
 30
0.0
 40
0.75
  0
CIRCLE
  5
C4
330
17
100
AcDbEntity
  8
SEWING_HOLES
100
AcDbCircle
 10
94.89999999999999
 20
16.5
 30
0.0
 40
0.75
  0
CIRCLE
  5
C5
330
17
100
AcDbEntity
  8
SEWING_HOLES
100
AcDbCircle
 10
103.5
 20
17.80000000000001
 30
0.0
 40
0.75
  0
CIRCLE
  5
C6
330
17
100
AcDbEntity
  8
SEWING_HOLES
100
AcDbCircle
 10
103.5
 20
26.299999999999997
 30
0.0
 40
0.75
  0
CIRCLE
  5
C7
330
17
100
AcDbEntity
  8
SEWING_HOLES
100
AcDbCircle
 10
103.5
 20
30.5
 30
0.0
 40
0.75
  0
CIRCLE
  5
C8
330
17
100
AcDbEntity
  8
SEWING_HOLES
100
AcDbCircle
 10
103.5
 20
34.70000000000002
 30
0.0
 40
0.75
  0
CIRCLE
  5
C9
330
17
100
AcDbEntity
  8
SEWING_HOLES
100
AcDbCircle
 10
103.5
 20
39.0
 30
0.0
 40
0.75
  0
CIRCLE
  5
CA
330
17
100
AcDbEntity
  8
SEWING_HOLES
100
AcDbCircle
 10
103.5
 20
43.20000000000002
 30
0.0
 40
0.75
  0
CIRCLE
  5
CB
330
17
100
AcDbEntity
  8
SEWING_HOLES
100
AcDbCircle
 10
103.5
 20
47.5
 30
0.0
 40
0.75
  0
CIRCLE
  5
CC
330
17
100
AcDbEntity
  8
SEWING_HOLES
100
AcDbCircle
 10
103.5
 20
51.70000000000002
 30
0.0
 40
0.75
  0
CIRCLE
  5
CD
330
17
100
AcDbEntity
  8
SEWING_HOLES
100
AcDbCircle
 10
103.5
 20
56.0
 30
0.0
 40
0.75
  0
CIRCLE
  5
CE
330
17
100
AcDbEntity
  8
SEWING_HOLES
100
AcDbCircle
 10
103.5
 20
60.299999999999976
 30
0.0
 40
0.75
  0
CIRCLE
  5
CF
330
17
100
AcDbEntity
  8
SEWING_HOLES
100
AcDbCircle
 10
103.5
 20
64.5
 30
0.0
 40
0.75
  0
CIRCLE
  5
D0
330
17
100
AcDbEntity
  8
SEWING_HOLES
100
AcDbCircle
 10
103.5
 20
68.80000000000001
 30
0.0
 40
0.75
  0
CIRCLE
  5
D1
330
17
100
AcDbEntity
  8
SEWING_HOLES
100
AcDbCircle
 10
103.5
 20
73.1
 30
0.0
 40
0.75
  0
CIRCLE
  5
D2
330
17
100
AcDbEntity
  8
SEWING_HOLES
100
AcDbCircle
 10
103.5
 20
77.30000000000001
 30
0.0
 40
0.75
  0
CIRCLE
  5
D3
330
17
100
AcDbEntity
  8
SEWING_HOLES
100
AcDbCircle
 10
103.5
 20
81.6
 30
0.0
 40
0.75
  0
CIRCLE
  5
D4
330
17
100
AcDbEntity
  8
SEWING_HOLES
100
AcDbCircle
 10
103.5
 20
85.80000000000001
 30
0.0
 40
0.75
  0
CIRCLE
  5
D5
330
17
100
AcDbEntity
  8
SEWING_HOLES
100
AcDbCircle
 10
103.5
 20
90.1
 30
0.0
 40
0.75
  0
CIRCLE
  5
D6
330
17
100
AcDbEntity
  8
SEWING_HOLES
100
AcDbCircle
 10
103.5
 20
94.30000000000001
 30
0.0
 40
0.75
  0
CIRCLE
  5
D7
330
17
100
AcDbEntity
  8
SEWING_HOLES
100
AcDbCircle
 10
103.5
 20
98.6
 30
0.0
 40
0.75
  0
CIRCLE
  5
D8
330
17
100
AcDbEntity
  8
SEWING_HOLES
100
AcDbCircle
 10
103.5
 20
102.9
 30
0.0
 40
0.75
  0
CIRCLE
  5
D9
330
17
100
AcDbEntity
  8
SEWING_HOLES
100
AcDbCircle
 10
98.39999999999998
 20
103.5
 30
0.0
 40
0.75
  0
CIRCLE
  5
DA
330
17
100
AcDbEntity
  8
SEWING_HOLES
100
AcDbCircle
 10
94.10000000000002
 20
103.5
 30
0.0
 40
0.75
  0
CIRCLE
  5
DB
330
17
100
AcDbEntity
  8
SEWING_HOLES
100
AcDbCircle
 10
89.9
 20
103.5
 30
0.0
 40
0.75
  0
CIRCLE
  5
DC
330
17
100
AcDbEntity
  8
SEWING_HOLES
100
AcDbCircle
 10
85.59999999999997
 20
103.5
 30
0.0
 40
0.75
  0
CIRCLE
  5
DD
330
17
100
AcDbEntity
  8
SEWING_HOLES
100
AcDbCircle
 10
81.30000000000001
 20
103.5
 30
0.0
 40
0.75
  0
CIRCLE
  5
DE
330
17
100
AcDbEntity
  8
SEWING_HOLES
100
AcDbCircle
 10
77.1
 20
103.5
 30
0.0
 40
0.75
  0
CIRCLE
  5
DF
330
17
100
AcDbEntity
  8
SEWING_HOLES
100
AcDbCircle
 10
72.80000000000001
 20
103.5
 30
0.0
 40
0.75
  0
CIRCLE
  5
E0
330
17
100
AcDbEntity
  8
SEWING_HOLES
100
AcDbCircle
 10
68.6
 20
103.5
 30
0.0
 40
0.75
  0
CIRCLE
  5
E1
330
17
100
AcDbEntity
  8
SEWING_HOLES
100
AcDbCircle
 10
64.30000000000001
 20
103.5
 30
0.0
 40
0.75
  0
CIRCLE
  5
E2
330
17
100
AcDbEntity
  8
SEWING_HOLES
100
AcDbCircle
 10
60.099999999999994
 20
103.5
 30
0.0
 40
0.75
  0
CIRCLE
  5
E3
330
17
100
AcDbEntity
  8
SEWING_HOLES
100
AcDbCircle
 10
55.800000000000004
 20
103.5
 30
0.0
 40
0.75
  0
CIRCLE
  5
E4
330
17
100
AcDbEntity
  8
SEWING_HOLES
100
AcDbCircle
 10
51.59999999999997
 20
103.5
 30
0.0
 40
0.75
  0
CIRCLE
  5
E5
330
17
100
AcDbEntity
  8
SEWING_HOLES
100
AcDbCircle
 10
47.30000000000001
 20
103.5
 30
0.0
 40
0.75
  0
CIRCLE
  5
E6
330
17
100
AcDbEntity
  8
SEWING_HOLES
100
AcDbCircle
 10
43.0
 20
103.5
 30
0.0
 40
0.75
  0
CIRCLE
  5
E7
330
17
100
AcDbEntity
  8
SEWING_HOLES
100
AcDbCircle
 10
38.799999999999955
 20
103.5
 30
0.0
 40
0.75
  0
CIRCLE
  5
E8
330
17
100
AcDbEntity
  8
SEWING_HOLES
100
AcDbCircle
 10
34.5
 20
103.5
 30
0.0
 40
0.75
  0
CIRCLE
  5
E9
330
17
100
AcDbEntity
  8
SEWING_HOLES
100
AcDbCircle
 10
30.19999999999999
 20
103.5
 30
0.0
 40
0.75
  0
CIRCLE
  5
EA
330
17
100
AcDbEntity
  8
SEWING_HOLES
100
AcDbCircle
 10
25.899999999999977
 20
103.5
 30
0.0
 40
0.75
  0
CIRCLE
  5
EB
330
17
100
AcDbEntity
  8
SEWING_HOLES
100
AcDbCircle
 10
21.600000000000023
 20
103.5
 30
0.0
 40
0.75
  0
CIRCLE
  5
EC
330
17
100
AcDbEntity
  8
SEWING_HOLES
100
AcDbCircle
 10
17.399999999999977
 20
103.5
 30
0.0
 40
0.75
  0
CIRCLE
  5
ED
330
17
100
AcDbEntity
  8
SEWING_HOLES
100
AcDbCircle
 10
16.5
 20
98.39999999999998
 30
0.0
 40
0.75
  0
CIRCLE
  5
EE
330
17
100
AcDbEntity
  8
SEWING_HOLES
100
AcDbCircle
 10
16.5
 20
94.10000000000002
 30
0.0
 40
0.75
  0
CIRCLE
  5
EF
330
17
100
AcDbEntity
  8
SEWING_HOLES
100
AcDbCircle
 10
16.5
 20
89.89999999999998
 30
0.0
 40
0.75
  0
CIRCLE
  5
F0
330
17
100
AcDbEntity
  8
SEWING_HOLES
100
AcDbCircle
 10
16.5
 20
85.59999999999997
 30
0.0
 40
0.75
  0
CIRCLE
  5
F1
330
17
100
AcDbEntity
  8
SEWING_HOLES
100
AcDbCircle
 10
16.5
 20
81.30000000000001
 30
0.0
 40
0.75
  0
CIRCLE
  5
F2
330
17
100
AcDbEntity
  8
SEWING_HOLES
100
AcDbCircle
 10
16.5
 20
77.09999999999997
 30
0.0
 40
0.75
  0
CIRCLE
  5
F3
330
17
100
AcDbEntity
  8
SEWING_HOLES
100
AcDbCircle
 10
16.5
 20
72.80000000000001
 30
0.0
 40
0.75
  0
CIRCLE
  5
F4
330
17
100
AcDbEntity
  8
SEWING_HOLES
100
AcDbCircle
 10
16.5
 20
68.59999999999997
 30
0.0
 40
0.75
  0
CIRCLE
  5
F5
330
17
100
AcDbEntity
  8
SEWING_HOLES
100
AcDbCircle
 10
16.5
 20
64.30000000000001
 30
0.0
 40
0.75
  0
CIRCLE
  5
F6
330
17
100
AcDbEntity
  8
SEWING_HOLES
100
AcDbCircle
 10
16.5
 20
60.099999999999966
 30
0.0
 40
0.75
  0
CIRCLE
  5
F7
330
17
100
AcDbEntity
  8
SEWING_HOLES
100
AcDbCircle
 10
16.5
 20
55.800000000000004
 30
0.0
 40
0.75
  0
CIRCLE
  5
F8
330
17
100
AcDbEntity
  8
SEWING_HOLES
100
AcDbCircle
 10
16.5
 20
51.59999999999997
 30
0.0
 40
0.75
  0
CIRCLE
  5
F9
330
17
100
AcDbEntity
  8
SEWING_HOLES
100
AcDbCircle
 10
16.5
 20
47.30000000000001
 30
0.0
 40
0.75
  0
CIRCLE
  5
FA
330
17
100
AcDbEntity
  8
SEWING_HOLES
100
AcDbCircle
 10
16.5
 20
43.0
 30
0.0
 40
0.75
  0
CIRCLE
  5
FB
330
17
100
AcDbEntity
  8
SEWING_HOLES
100
AcDbCircle
 10
16.5
 20
38.799999999999955
 30
0.0
 40
0.75
  0
CIRCLE
  5
FC
330
17
100
AcDbEntity
  8
SEWING_HOLES
100
AcDbCircle
 10
16.5
 20
34.5
 30
0.0
 40
0.75
  0
CIRCLE
  5
FD
330
17
100
AcDbEntity
  8
SEWING_HOLES
100
AcDbCircle
 10
16.5
 20
30.19999999999999
 30
0.0
 40
0.75
  0
CIRCLE
  5
FE
330
17
100
AcDbEntity
  8
SEWING_HOLES
100
AcDbCircle
 10
16.5
 20
25.899999999999977
 30
0.0
 40
0.75
  0
CIRCLE
  5
FF
330
17
100
AcDbEntity
  8
SEWING_HOLES
100
AcDbCircle
 10
86.5
 20
60.0
 30
0.0
 40
0.75
  0
CIRCLE
  5
100
330
17
100
AcDbEntity
  8
SEWING_HOLES
100
AcDbCircle
 10
86.06618717927226
 20
55.24777434732915
 30
0.0
 40
0.75
  0
CIRCLE
  5
101
330
17
100
AcDbEntity
  8
SEWING_HOLES
100
AcDbCircle
 10
84.78897977498461
 20
50.6274723630404
 30
0.0
 40
0.75
  0
CIRCLE
  5
102
330
17
100
AcDbEntity
  8
SEWING_HOLES
100
AcDbCircle
 10
82.7029112207908
 20
46.328184967224665
 30
0.0
 40
0.75
  0
CIRCLE
  5
103
330
17
100
AcDbEntity
  8
SEWING_HOLES
100
AcDbCircle
 10
79.91098649626785
 20
42.524242777078925
 30
0.0
 40
0.75
  0
CIRCLE
  5
104
330
17
100
AcDbEntity
  8
SEWING_HOLES
100
AcDbCircle
 10
76.4927797611124
 20
39.266604300257704
 30
0.0
 40
0.75
  0
CIRCLE
  5
105
330
17
100
AcDbEntity
  8
SEWING_HOLES
100
AcDbCircle
 10
72.56082204345907
 20
36.662547817921656
 30
0.0
 40
0.75
  0
CIRCLE
  5
106
330
17
100
AcDbEntity
  8
SEWING_HOLES
100
AcDbCircle
 10
45.33256231050327
 20
37.93097941216233
 30
0.0
 40
0.75
  0
CIRCLE
  5
107
330
17
100
AcDbEntity
  8
SEWING_HOLES
100
AcDbCircle
 10
41.65408037174317
 20
40.888917201910324
 30
0.0
 40
0.75
  0
CIRCLE
  5
108
330
17
100
AcDbEntity
  8
SEWING_HOLES
100
AcDbCircle
 10
38.550603229046196
 20
44.44683726820455
 30
0.0
 40
0.75
  0
CIRCLE
  5
109
330
17
100
AcDbEntity
  8
SEWING_HOLES
100
AcDbCircle
 10
36.09301536449244
 20
48.5511776016095
 30
0.0
 40
0.75
  0
CIRCLE
  5
10A
330
17
100
AcDbEntity
  8
SEWING_HOLES
100
AcDbCircle
 10
34.45335308935483
 20
52.958594420675055
 30
0.0
 40
0.75
  0
CIRCLE
  5
10B
330
17
100
AcDbEntity
  8
SEWING_HOLES
100
AcDbCircle
 10
33.608897124694984
 20
57.670352519553354
 30
0.0
 40
0.75
  0
CIRCLE
  5
10C
330
17
100
AcDbEntity
  8
SEWING_HOLES
100
AcDbCircle
 10
33.61647548277581
 20
62.42930888327749
 30
0.0
 40
0.75
  0
CIRCLE
  5
10D
330
17
100
AcDbEntity
  8
SEWING_HOLES
100
AcDbCircle
 10
34.48065596741509
 20
67.13755327600522
 30
0.0
 40
0.75
  0
CIRCLE
  5
10E
330
17
100
AcDbEntity
  8
SEWING_HOLES
100
AcDbCircle
 10
36.1385779608172
 20
71.53778237009443
 30
0.0
 40
0.75
  0
CIRCLE
  5
10F
330
17
100
AcDbEntity
  8
SEWING_HOLES
100
AcDbCircle
 10
38.608526332409035
 20
75.63461665029246
 30
0.0
 40
0.75
  0
CIRCLE
  5
110
330
17
100
AcDbEntity
  8
SEWING_HOLES
100
AcDbCircle
 10
41.72642011423972
 20
79.18005227237235
 30
0.0
 40
0.75
  0
CIRCLE
  5
111
330
17
100
AcDbEntity
  8
SEWING_HOLES
100
AcDbCircle
 10
45.41670501679949
 20
82.12296344407262
 30
0.0
 40
0.75
  0
CIRCLE
  5
112
330
17
100
AcDbEntity
  8
SEWING_HOLES
100
AcDbCircle
 10
49.62609209425329
 20
84.39066886866402
 30
0.0
 40
0.75
  0
CIRCLE
  5
113
330
17
100
AcDbEntity
  8
SEWING_HOLES
100
AcDbCircle
 10
54.19529501727853
 20
85.85419825167547
 30
0.0
 40
0.75
  0
CIRCLE
  5
114
330
17
100
AcDbEntity
  8
SEWING_HOLES
100
AcDbCircle
 10
58.883932105090665
 20
86.47469071450402
 30
0.0
 40
0.75
  0
CIRCLE
  5
115
330
17
100
AcDbEntity
  8
SEWING_HOLES
100
AcDbCircle
 10
63.59394259941057
 20
86.25005201654253
 30
0.0
 40
0.75
  0
CIRCLE
  5
116
330
17
100
AcDbEntity
  8
SEWING_HOLES
100
AcDbCircle
 10
68.26264129850405
 20
85.17912322784088
 30
0.0
 40
0.75
  0
CIRCLE
  5
117
330
17
100
AcDbEntity
  8
SEWING_HOLES
100
AcDbCircle
 10
72.64978201526155
 20
83.29188958570312
 30
0.0
 40
0.75
  0
CIRCLE
  5
118
330
17
100
AcDbEntity
  8
SEWING_HOLES
100
AcDbCircle
 10
76.57136659072741
 20
80.67163861983383
 30
0.0
 40
0.75
  0
CIRCLE
  5
119
330
17
100
AcDbEntity
  8
SEWING_HOLES
100
AcDbCircle
 10
79.9764270534604
 20
77.40021015027521
 30
0.0
 40
0.75
  0
CIRCLE
  5
11A
330
17
100
AcDbEntity
  8
SEWING_HOLES
100
AcDbCircle
 10
82.75273216921101
 20
73.58516804897882
 30
0.0
 40
0.75
  0
CIRCLE
  5
11B
330
17
100
AcDbEntity
  8
SEWING_HOLES
100
AcDbCircle
 10
84.82564159507177
 20
69.27954517804346
 30
0.0
 40
0.75
  0
CIRCLE
  5
11C
330
17
100
AcDbEntity
  8
SEWING_HOLES
100
AcDbCircle
 10
86.08375825470381
 20
64.65383315306947
 30
0.0
 40
0.75
  0
CIRCLE
  5
11D
330
17
100
AcDbEntity
  8
SEWING_HOLES
100
AcDbCircle
 10
83.37616360800335
 20
57.5809550889774
 30
0.0
 40
0.75
  0
CIRCLE
  5
11E
330
17
100
AcDbEntity
  8
SEWING_HOLES
100
AcDbCircle
 10
82.52423329440346
 20
53.297359236667106
 30
0.0
 40
0.75
  0
CIRCLE
  5
11F
330
17
100
AcDbEntity
  8
SEWING_HOLES
100
AcDbCircle
 10
80.91788875575222
 20
49.29603150075071
 30
0.0
 40
0.75
  0
CIRCLE
  5
120
330
17
100
AcDbEntity
  8
SEWING_HOLES
100
AcDbCircle
 10
78.59074044533651
 20
45.63592966910734
 30
0.0
 40
0.75
  0
CIRCLE
  5
121
330
17
100
AcDbEntity
  8
SEWING_HOLES
100
AcDbCircle
 10
75.62486173498549
 20
42.45474024256803
 30
0.0
 40
0.75
  0
CIRCLE
  5
122
330
17
100
AcDbEntity
  8
SEWING_HOLES
100
AcDbCircle
 10
72.12275844565418
 20
39.86317416956922
 30
0.0
 40
0.75
  0
CIRCLE
  5
123
330
17
100
AcDbEntity
  8
SEWING_HOLES
100
AcDbCircle
 10
68.22562192101354
 20
37.98358307108783
 30
0.0
 40
0.75
  0
CIRCLE
  5
124
330
17
100
AcDbEntity
  8
SEWING_HOLES
100
AcDbCircle
 10
51.123500866355435
 20
38.24021581178387
 30
0.0
 40
0.75
  0
CIRCLE
  5
125
330
17
100
AcDbEntity
  8
SEWING_HOLES
100
AcDbCircle
 10
47.28824261096959
 20
40.240774162766876
 30
0.0
 40
0.75
  0
CIRCLE
  5
126
330
17
100
AcDbEntity
  8
SEWING_HOLES
100
AcDbCircle
 10
43.86889735679566
 20
42.922275269150944
 30
0.0
 40
0.75
  0
CIRCLE
  5
127
330
17
100
AcDbEntity
  8
SEWING_HOLES
100
AcDbCircle
 10
40.99546471077376
 20
46.18541494411234
 30
0.0
 40
0.75
  0
CIRCLE
  5
128
330
17
100
AcDbEntity
  8
SEWING_HOLES
100
AcDbCircle
 10
38.76317307037544
 20
49.91875130189539
 30
0.0
 40
0.75
  0
CIRCLE
  5
129
330
17
100
AcDbEntity
  8
SEWING_HOLES
100
AcDbCircle
 10
37.28464655914836
 20
53.9703931135217
 30
0.0
 40
0.75
  0
CIRCLE
  5
12A
330
17
100
AcDbEntity
  8
SEWING_HOLES
100
AcDbCircle
 10
36.56994776289223
 20
58.2964646066458
 30
0.0
 40
0.75
  0
CIRCLE
  5
12B
330
17
100
AcDbEntity
  8
SEWING_HOLES
100
AcDbCircle
 10
36.65672108101373
 20
62.670437094224646
 30
0.0
 40
0.75
  0
CIRCLE
  5
12C
330
17
100
AcDbEntity
  8
SEWING_HOLES
100
AcDbCircle
 10
37.53037246172123
 20
66.89493615670807
 30
0.0
 40
0.75
  0
CIRCLE
  5
12D
330
17
100
AcDbEntity
  8
SEWING_HOLES
100
AcDbCircle
 10
39.17323643693815
 20
70.88188844273688
 30
0.0
 40
0.75
  0
CIRCLE
  5
12E
330
17
100
AcDbEntity
  8
SEWING_HOLES
100
AcDbCircle
 10
41.53277371460127
 20
74.52124399027643
 30
0.0
 40
0.75
  0
CIRCLE
  5
12F
330
17
100
AcDbEntity
  8
SEWING_HOLES
100
AcDbCircle
 10
44.52623241057891
 20
77.67614087205324
 30
0.0
 40
0.75
  0
CIRCLE
  5
130
330
17
100
AcDbEntity
  8
SEWING_HOLES
100
AcDbCircle
 10
48.04019172521598
 20
80.22673084010935
 30
0.0
 40
0.75
  0
CIRCLE
  5
131
330
17
100
AcDbEntity
  8
SEWING_HOLES
100
AcDbCircle
 10
51.96034299670367
 20
82.08974056904111
 30
0.0
 40
0.75
  0
CIRCLE
  5
132
330
17
100
AcDbEntity
  8
SEWING_HOLES
100
AcDbCircle
 10
56.21794119862806
 20
83.19197941512569
 30
0.0
 40
0.75
  0
CIRCLE
  5
133
330
17
100
AcDbEntity
  8
SEWING_HOLES
100
AcDbCircle
 10
60.56737235286999
 20
83.49230003826474
 30
0.0
 40
0.75
  0
CIRCLE
  5
134
330
17
100
AcDbEntity
  8
SEWING_HOLES
100
AcDbCircle
 10
64.864376299664
 20
82.99869758490074
 30
0.0
 40
0.75
  0
CIRCLE
  5
135
330
17
100
AcDbEntity
  8
SEWING_HOLES
100
AcDbCircle
 10
69.0624640518403
 20
81.6864605478985
 30
0.0
 40
0.75
  0
CIRCLE
  5
136
330
17
100
AcDbEntity
  8
SEWING_HOLES
100
AcDbCircle
 10
72.88004280106512
 20
79.65134012512075
 30
0.0
 40
0.75
  0
CIRCLE
  5
137
330
17
100
AcDbEntity
  8
SEWING_HOLES
100
AcDbCircle
 10
76.2757821279669
 20
76.9397857825035
 30
0.0
 40
0.75
  0
CIRCLE
  5
138
330
17
100
AcDbEntity
  8
SEWING_HOLES
100
AcDbCircle
 10
79.12038149583698
 20
73.65167721905529
 30
0.0
 40
0.75
  0
CIRCLE
  5
139
330
17
100
AcDbEntity
  8
SEWING_HOLES
100
AcDbCircle
 10
81.30706920798683
 20
69.91219575175562
 30
0.0
 40
0.75
  0
CIRCLE
  5
13A
330
17
100
AcDbEntity
  8
SEWING_HOLES
100
AcDbCircle
 10
82.76995919706737
 20
65.83731149278256
 30
0.0
 40
0.75
  0
CIRCLE
  5
13B
330
17
100
AcDbEntity
  8
SEWING_HOLES
100
AcDbCircle
 10
83.4452089532608
 20
61.50421258780584
 30
0.0
 40
0.75
  0
ENDSEC
  0
SECTION
  2
OBJECTS
  0
DICTIONARY
  5
A
330
0
100
AcDbDictionary
281
1
  3
ACAD_COLOR
350
B
  3
ACAD_GROUP
350
C
  3
ACAD_LAYOUT
350
D
  3
ACAD_MATERIAL
350
E
  3
ACAD_MLEADERSTYLE
350
F
  3
ACAD_MLINESTYLE
350
10
  3
ACAD_PLOTSETTINGS
350
11
  3
ACAD_PLOTSTYLENAME
350
12
  3
ACAD_SCALELIST
350
14
  3
ACAD_TABLESTYLE
350
15
  3
ACAD_VISUALSTYLE
350
16
  3
EZDXF_META
350
2D
  0
DICTIONARY
  5
B
330
A
100
AcDbDictionary
281
1
  0
DICTIONARY
  5
C
330
A
100
AcDbDictionary
281
1
  0
DICTIONARY
  5
D
330
A
100
AcDbDictionary
281
1
  3
Model
350
1A
  3
Layout1
350
1E
  0
DICTIONARY
  5
E
330
A
100
AcDbDictionary
281
1
  3
ByBlock
350
1F
  3
ByLayer
350
20
  3
Global
350
21
  0
DICTIONARY
  5
F
330
A
100
AcDbDictionary
281
1
  3
Standard
350
2C
  0
DICTIONARY
  5
10
330
A
100
AcDbDictionary
281
1
  3
Standard
350
22
  0
DICTIONARY
  5
11
330
A
100
AcDbDictionary
281
1
  0
ACDBDICTIONARYWDFLT
  5
12
330
A
100
AcDbDictionary
281
1
  3
Normal
350
13
100
AcDbDictionaryWithDefault
340
13
  0
ACDBPLACEHOLDER
  5
13
330
12
  0
DICTIONARY
  5
14
330
A
100
AcDbDictionary
281
1
  0
DICTIONARY
  5
15
330
A
100
AcDbDictionary
281
1
  0
DICTIONARY
  5
16
330
A
100
AcDbDictionary
281
1
  0
LAYOUT
  5
1A
330
D
100
AcDbPlotSettings
  1

  4
A3
  6

 40
7.5
 41
20.0
 42
7.5
 43
20.0
 44
420.0
 45
297.0
 46
0.0
 47
0.0
 48
0.0
 49
0.0
140
0.0
141
0.0
142
1.0
143
1.0
 70
1024
 72
1
 73
0
 74
5
  7

 75
16
 76
0
 77
2
 78
300
147
1.0
148
0.0
149
0.0
100
AcDbLayout
  1
Model
 70
1
 71
0
 10
0.0
 20
0.0
 11
420.0
 21
297.0
 12
0.0
 22
0.0
 32
0.0
 14
1e+20
 24
1e+20
 34
1e+20
 15
-1e+20
 25
-1e+20
 35
-1e+20
146
0.0
 13
0.0
 23
0.0
 33
0.0
 16
1.0
 26
0.0
 36
0.0
 17
0.0
 27
1.0
 37
0.0
 76
1
330
17
  0
LAYOUT
  5
1E
330
D
100
AcDbPlotSettings
  1

  4
A3
  6

 40
7.5
 41
20.0
 42
7.5
 43
20.0
 44
420.0
 45
297.0
 46
0.0
 47
0.0
 48
0.0
 49
0.0
140
0.0
141
0.0
142
1.0
143
1.0
 70
0
 72
1
 73
0
 74
5
  7

 75
16
 76
0
 77
2
 78
300
147
1.0
148
0.0
149
0.0
100
AcDbLayout
  1
Layout1
 70
1
 71
1
 10
0.0
 20
0.0
 11
420.0
 21
297.0
 12
0.0
 22
0.0
 32
0.0
 14
1e+20
 24
1e+20
 34
1e+20
 15
-1e+20
 25
-1e+20
 35
-1e+20
146
0.0
 13
0.0
 23
0.0
 33
0.0
 16
1.0
 26
0.0
 36
0.0
 17
0.0
 27
1.0
 37
0.0
 76
1
330
1B
  0
MATERIAL
  5
1F
102
{ACAD_REACTORS
330
E
102
}
330
E
100
AcDbMaterial
  1
ByBlock
  2

 70
0
 40
1.0
 71
1
 41
1.0
 91
-1023410177
 42
1.0
 72
1
  3

 73
1
 74
1
 75
1
 44
0.5
 73
0
 45
1.0
 46
1.0
 77
1
  4

 78
1
 79
1
170
1
 48
1.0
171
1
  6

172
1
173
1
174
1
140
1.0
141
1.0
175
1
  7

176
1
177
1
178
1
143
1.0
179
1
  8

270
1
271
1
272
1
145
1.0
146
1.0
273
1
  9

274
1
275
1
276
1
 42
1.0
 72
1
  3

 73
1
 74
1
 75
1
 94
63
  0
MATERIAL
  5
20
102
{ACAD_REACTORS
330
E
102
}
330
E
100
AcDbMaterial
  1
ByLayer
  2

 70
0
 40
1.0
 71
1
 41
1.0
 91
-1023410177
 42
1.0
 72
1
  3

 73
1
 74
1
 75
1
 44
0.5
 73
0
 45
1.0
 46
1.0
 77
1
  4

 78
1
 79
1
170
1
 48
1.0
171
1
  6

172
1
173
1
174
1
140
1.0
141
1.0
175
1
  7

176
1
177
1
178
1
143
1.0
179
1
  8

270
1
271
1
272
1
145
1.0
146
1.0
273
1
  9

274
1
275
1
276
1
 42
1.0
 72
1
  3

 73
1
 74
1
 75
1
 94
63
  0
MATERIAL
  5
21
102
{ACAD_REACTORS
330
E
102
}
330
E
100
AcDbMaterial
  1
Global
  2

 70
0
 40
1.0
 71
1
 41
1.0
 91
-1023410177
 42
1.0
 72
1
  3

 73
1
 74
1
 75
1
 44
0.5
 73
0
 45
1.0
 46
1.0
 77
1
  4

 78
1
 79
1
170
1
 48
1.0
171
1
  6

172
1
173
1
174
1
140
1.0
141
1.0
175
1
  7

176
1
177
1
178
1
143
1.0
179
1
  8

270
1
271
1
272
1
145
1.0
146
1.0
273
1
  9

274
1
275
1
276
1
 42
1.0
 72
1
  3

 73
1
 74
1
 75
1
 94
63
  0
MLINESTYLE
  5
22
102
{ACAD_REACTORS
330
10
102
}
330
10
100
AcDbMlineStyle
  2
Standard
 70
0
  3

 62
256
 51
90.0
 52
90.0
 71
2
 49
0.5
 62
256
  6
BYLAYER
 49
-0.5
 62
256
  6
BYLAYER
  0
MLEADERSTYLE
  5
2C
102
{ACAD_REACTORS
330
F
102
}
330
F
100
AcDbMLeaderStyle
179
2
170
2
171
1
172
0
 90
2
 40
0.0
 41
0.0
173
1
 91
-1056964608
 92
-2
290
1
 42
2.0
291
1
 43
8.0
  3
Standard
 44
4.0
300

342
29
174
1
175
1
176
0
178
1
 93
-1056964608
 45
4.0
292
0
297
0
 46
4.0
 94
-1056964608
 47
1.0
 49
1.0
140
1.0
294
1
141
0.0
177
0
142
1.0
295
0
296
0
143
3.75
271
0
272
9
273
9
  0
DICTIONARY
  5
2D
330
A
100
AcDbDictionary
280
1
281
1
  3
CREATED_BY_EZDXF
350
2E
  3
WRITTEN_BY_EZDXF
350
35
  0
DICTIONARYVAR
  5
2E
330
2D
100
DictionaryVariables
280
0
  1
1.4.4 @ 2026-06-03T19:05:57.726695+00:00
  0
DICTIONARYVAR
  5
35
330
2D
100
DictionaryVariables
280
0
  1
1.4.4 @ 2026-06-10T00:10:31.717900+00:00
  0
ENDSEC
  0
EOF
