<?xml version="1.0" encoding="utf-8" ?>
<svg baseProfile="full" height="110.0" version="1.1" viewBox="5.0 -115.0 110.0 110.0" width="110.0" xmlns="http://www.w3.org/2000/svg" xmlns:ev="http://www.w3.org/2001/xml-events" xmlns:xlink="http://www.w3.org/1999/xlink"><defs /><g fill="none" id="layer_ORIGINAL" stroke="#ff0000" stroke-width="0.5"><polygon points="10.0,-10.0 110.0,-10.0 110.0,-110.0 10.0,-110.0 10.0,-10.0" /><circle cx="60.0" cy="-60.0" r="30.0" /><polyline points="15.0,-15.0 60.0,-30.0 105.0,-15.0" /></g><g fill="none" id="layer_SEWING_HOLES" stroke="#00ff00" stroke-width="0.5"><circle cx="13.418861169915811" cy="-19.74341649025257" r="0.75" /><circle cx="19.203898050843105" cy="-21.671762117228333" r="0.75" /><circle cx="24.988934931850334" cy="-23.60010774423074" r="0.75" /><circle cx="30.773971812671046" cy="-25.528453371170983" r="0.75" /><circle cx="36.5590086935184" cy="-27.4567989981201" r="0.75" /><circle cx="42.34404557452562" cy="-29.385144625122507" r="0.75" /><circle cx="48.1290824555595" cy="-31.313490252133796" r="0.75" /><circle cx="53.91411933635356" cy="-33.24183587906516" r="0.75" /><circle cx="59.708927781779664" cy="-34.978253638169846" r="0.75" /><circle cx="65.51686064257163" cy="-33.431509219423425" r="0.75" /><circle cx="71.30189752344562" cy="-31.503163592465427" r="0.75" /><circle cx="77.08693440437291" cy="-29.574817965489657" r="0.75" /><circle cx="82.87197128522027" cy="-27.64647233854054" r="0.75" /><circle cx="88.6570081662275" cy="-25.718126711538133" r="0.75" /><circle cx="94.44204504718144" cy="-23.78978108455349" r="0.75" /><circle cx="100.22708192808207" cy="-21.86143545758661" r="0.75" /><circle cx="106.0121188089694" cy="-19.933089830624166" r="0.75" /><circle cx="17.4" cy="-15.0" r="0.75" /><circle cx="22.1" cy="-15.0" r="0.75" /><circle cx="26.900000000000002" cy="-15.0" r="0.75" /><circle cx="31.7" cy="-15.0" r="0.75" /><circle cx="36.400000000000006" cy="-15.0" r="0.75" /><circle cx="41.2" cy="-15.0" r="0.75" /><circle cx="46.0" cy="-15.0" r="0.75" /><circle cx="50.8" cy="-15.0" r="0.75" /><circle cx="55.5" cy="-15.0" r="0.75" /><circle cx="60.2" cy="-15.0" r="0.75" /><circle cx="64.9" cy="-15.0" r="0.75" /><circle cx="69.69999999999999" cy="-15.0" r="0.75" /><circle cx="74.4" cy="-15.0" r="0.75" /><circle cx="79.19999999999999" cy="-15.0" r="0.75" /><circle cx="83.9" cy="-15.0" r="0.75" /><circle cx="88.60000000000001" cy="-15.0" r="0.75" /><circle cx="93.39999999999999" cy="-15.0" r="0.75" /><circle cx="98.1" cy="-15.0" r="0.75" /><circle cx="105.0" cy="-15.800000000000011" r="0.75" /><circle cx="105.0" cy="-25.39999999999999" r="0.75" /><circle cx="105.0" cy="-30.10000000000001" r="0.75" /><circle cx="105.0" cy="-34.900000000000006" r="0.75" /><circle cx="105.0" cy="-39.69999999999999" r="0.75" /><circle cx="105.0" cy="-44.400000000000006" r="0.75" /><circle cx="105.0" cy="-49.19999999999999" r="0.75" /><circle cx="105.0" cy="-53.900000000000006" r="0.75" /><circle cx="105.0" cy="-58.70000000000002" r="0.75" /><circle cx="105.0" cy="-63.5" r="0.75" /><circle cx="105.0" cy="-68.20000000000002" r="0.75" /><circle cx="105.0" cy="-73.0" r="0.75" /><circle cx="105.0" cy="-77.70000000000002" r="0.75" /><circle cx="105.0" cy="-82.5" r="0.75" /><circle cx="105.0" cy="-87.29999999999998" r="0.75" /><circle cx="105.0" cy="-92.0" r="0.75" /><circle cx="105.0" cy="-96.80000000000001" r="0.75" /><circle cx="105.0" cy="-101.6" r="0.75" /><circle cx="101.69999999999999" cy="-105.0" r="0.75" /><circle cx="96.90000000000003" cy="-105.0" r="0.75" /><circle cx="92.20000000000002" cy="-105.0" r="0.75" /><circle cx="87.5" cy="-105.0" r="0.75" /><circle cx="82.69999999999999" cy="-105.0" r="0.75" /><circle cx="77.89999999999998" cy="-105.0" r="0.75" /><circle cx="73.09999999999997" cy="-105.0" r="0.75" /><circle cx="68.30000000000001" cy="-105.0" r="0.75" /><circle cx="63.599999999999994" cy="-105.0" r="0.75" /><circle cx="58.89999999999998" cy="-105.0" r="0.75" /><circle cx="54.099999999999994" cy="-105.0" r="0.75" /><circle cx="49.299999999999955" cy="-105.0" r="0.75" /><circle cx="44.5" cy="-105.0" r="0.75" /><circle cx="39.69999999999999" cy="-105.0" r="0.75" /><circle cx="34.900000000000034" cy="-105.0" r="0.75" /><circle cx="30.19999999999999" cy="-105.0" r="0.75" /><circle cx="25.399999999999977" cy="-105.0" r="0.75" /><circle cx="20.599999999999966" cy="-105.0" r="0.75" /><circle cx="15.799999999999955" cy="-105.0" r="0.75" /><circle cx="15.0" cy="-100.30000000000001" r="0.75" /><circle cx="15.0" cy="-95.59999999999997" r="0.75" /><circle cx="15.0" cy="-90.79999999999995" r="0.75" /><circle cx="15.0" cy="-86.0" r="0.75" /><circle cx="15.0" cy="-81.20000000000005" r="0.75" /><circle cx="15.0" cy="-76.5" r="0.75" /><circle cx="15.0" cy="-71.69999999999999" r="0.75" /><circle cx="15.0" cy="-66.89999999999998" r="0.75" /><circle cx="15.0" cy="-62.099999999999966" r="0.75" /><circle cx="15.0" cy="-57.30000000000001" r="0.75" /><circle cx="15.0" cy="-52.50000000000001" r="0.75" /><circle cx="15.0" cy="-47.69999999999999" r="0.75" /><circle cx="15.0" cy="-42.900000000000034" r="0.75" /><circle cx="15.0" cy="-38.19999999999999" r="0.75" /><circle cx="15.0" cy="-33.39999999999998" r="0.75" /><circle cx="15.0" cy="-28.600000000000023" r="0.75" /><circle cx="15.0" cy="-23.899999999999977" r="0.75" /><circle cx="85.0" cy="-60.0" r="0.75" /><circle cx="84.6422616037963" cy="-55.80665214781216" r="0.75" /><circle cx="83.58206463918447" cy="-51.69740719926816" r="0.75" /><circle cx="81.85093338103225" cy="-47.855702471209284" r="0.75" /><circle cx="79.4613575626707" cy="-44.31616775753726" r="0.75" /><circle cx="76.53142271092149" cy="-41.25551673396427" r="0.75" /><circle cx="73.1005985961214" cy="-38.70827679441699" r="0.75" /><circle cx="69.33372391811939" cy="-36.808107113696664" r="0.75" /><circle cx="52.64723834534439" cy="-36.10107428775581" r="0.75" /><circle cx="48.745684607781584" cy="-37.678688497014846" r="0.75" /><circle cx="45.11249131006265" cy="-39.91784172821273" r="0.75" /><circle cx="41.94008097258747" cy="-42.72531899310977" r="0.75" /><circle cx="39.25172604001993" cy="-46.04921137210345" r="0.75" /><circle cx="37.20259827443554" cy="-49.74310520927612" r="0.75" /><circle cx="35.787091190062576" cy="-53.75293685716813" r="0.75" /><circle cx="35.089422443788884" cy="-57.98340856316168" r="0.75" /><circle cx="35.10457915995299" cy="-62.215914242532286" r="0.75" /><circle cx="35.84169694618313" cy="-66.43935853619249" r="0.75" /><circle cx="37.28494597482104" cy="-70.43904352980934" r="0.75" /><circle cx="39.367572246721785" cy="-74.11369646485706" r="0.75" /><circle cx="42.07801992106826" cy="-77.41936049179465" r="0.75" /><circle cx="45.27539914705726" cy="-80.19800447851337" r="0.75" /><circle cx="48.92360455085181" cy="-82.41243669546175" r="0.75" /><circle cx="52.83953373854063" cy="-83.95353146831806" r="0.75" /><circle cx="56.991749939519856" cy="-84.81241455259743" r="0.75" /><circle cx="61.25886844321409" cy="-84.96818239713323" r="0.75" /><circle cx="65.46737487424902" cy="-84.3926208852942" r="0.75" /><circle cx="69.51968883603642" cy="-83.1185692460956" r="0.75" /><circle cx="73.26888400829877" cy="-81.18383749337919" r="0.75" /><circle cx="76.68251685616048" cy="-78.61360215169633" r="0.75" /><circle cx="79.58487172247284" cy="-75.52665858325159" r="0.75" /><circle cx="81.9505752781498" cy="-71.97100356071576" r="0.75" /><circle cx="83.64613440932429" cy="-68.1132402953189" r="0.75" /><circle cx="84.67740375482232" cy="-63.99656285207269" r="0.75" /></g></svg>